<svg width="262" height="63" viewBox="0 0 262 63" fill="none" xmlns="http://www.w3.org/2000/svg">
<path d="M11.1871 15.374L10.8721 23.564C10.8721 29.612 11.9221 32.636 14.0221 32.636C15.1141 32.636 15.9541 32.132 16.5421 31.124C17.2561 29.864 17.6761 28.688 17.8021 27.596C17.9701 26.462 18.0961 25.538 18.1801 24.824C18.2641 24.11 18.3271 23.207 18.3691 22.115C18.4111 20.981 18.4321 20.057 18.4321 19.343V16.571C18.4321 12.833 18.2221 9.998 17.8021 8.066C17.6341 7.688 17.5501 7.205 17.5501 6.617C17.5501 4.937 18.6001 3.467 20.7001 2.207C22.8001 0.904998 24.6481 0.253997 26.2441 0.253997C27.8401 0.253997 28.6381 0.925997 28.6381 2.27C28.6381 2.606 28.4911 3.509 28.1971 4.979C27.9031 6.449 27.6301 8.486 27.3781 11.09C27.1261 13.694 26.9791 15.941 26.9371 17.831C26.8951 19.679 26.8531 21.968 26.8111 24.698C26.8111 27.386 26.7691 29.906 26.6851 32.258C26.6431 34.568 26.2441 36.815 25.4881 38.999C24.7741 41.183 23.9131 42.863 22.9051 44.039C21.8971 45.173 20.7211 46.076 19.3771 46.748C17.3611 47.798 15.1351 48.323 12.6991 48.323C10.3051 48.323 8.20512 47.588 6.39912 46.118C4.63512 44.606 3.41712 42.821 2.74512 40.763C2.11512 38.663 1.80012 36.332 1.80012 33.77L2.11512 18.965V15.752L2.05212 12.287C2.05212 10.607 1.67412 9.263 0.918121 8.255C0.414121 7.751 0.162121 7.163 0.162121 6.491C0.162121 4.853 1.38012 3.404 3.81612 2.144C6.25212 0.883998 8.28912 0.253997 9.92712 0.253997C11.5651 0.253997 12.3841 0.841997 12.3841 2.018C12.3841 2.102 12.3001 2.9 12.1321 4.412C11.5441 9.536 11.2291 13.19 11.1871 15.374ZM41.545 30.935L41.419 35.66C41.419 36.92 41.482 38.621 41.608 40.763L41.797 43.976C41.797 45.362 41.314 46.391 40.348 47.063C38.794 48.155 36.799 48.701 34.363 48.701C32.641 48.701 31.78 47.966 31.78 46.496L31.906 45.488C32.956 40.574 33.481 36.416 33.481 33.014C33.523 29.612 33.418 27.344 33.166 26.21C32.956 25.076 32.494 24.131 31.78 23.375C31.066 22.577 30.709 21.926 30.709 21.422C30.709 20.036 31.801 18.713 33.985 17.453C36.169 16.193 37.891 15.563 39.151 15.563C40.453 15.563 41.188 16.256 41.356 17.642C41.44 19.49 41.671 20.414 42.049 20.414C42.175 20.414 42.322 20.351 42.49 20.225C42.658 19.931 42.91 19.574 43.246 19.154C43.624 18.734 44.401 18.188 45.577 17.516C46.795 16.802 48.181 16.445 49.735 16.445C51.289 16.445 52.57 17.075 53.578 18.335C54.586 19.595 55.195 21.086 55.405 22.808C55.489 23.522 55.531 24.698 55.531 26.336L55.279 35.66C55.279 38.516 55.93 40.469 57.232 41.519C57.988 41.897 58.366 42.38 58.366 42.968C58.366 43.514 58.198 44.018 57.862 44.48C56.266 46.748 53.662 47.882 50.05 47.882C48.328 47.84 47.32 47.147 47.026 45.803C46.9 45.215 46.837 44.312 46.837 43.094C46.837 41.834 46.942 39.881 47.152 37.235C47.404 34.547 47.53 32.573 47.53 31.313C47.53 27.575 46.69 25.706 45.01 25.706C43.918 25.706 43.057 26.294 42.427 27.47C41.839 28.646 41.545 29.801 41.545 30.935ZM84.5998 33.77L84.6628 35.282V35.534C84.6628 37.76 85.3348 39.335 86.6788 40.259C87.3088 40.763 87.6238 41.309 87.6238 41.897C87.6238 42.485 87.4768 42.989 87.1828 43.409C86.2588 44.753 85.1038 45.824 83.7178 46.622C81.8698 47.714 80.2528 48.26 78.8668 48.26C77.4808 48.26 76.7248 47.588 76.5988 46.244C76.5148 45.194 76.3048 44.669 75.9688 44.669L75.5278 44.921C74.0998 46.895 72.2098 47.882 69.8578 47.882C68.1358 47.882 66.6448 47.441 65.3848 46.559C64.1668 45.677 63.2428 44.48 62.6128 42.968C61.3948 40.112 60.7858 36.899 60.7858 33.329C60.7858 29.507 61.7518 25.832 63.6838 22.304C64.6498 20.624 65.9518 19.259 67.5898 18.209C69.2278 17.117 71.0338 16.571 73.0078 16.571C73.9318 16.571 74.6878 16.697 75.2758 16.949L76.1578 17.327C76.4518 17.327 76.6198 16.991 76.6618 16.319C76.7458 15.647 76.7878 14.786 76.7878 13.736C76.7878 12.644 76.7458 11.762 76.6618 11.09C76.5778 10.376 76.4728 9.851 76.3468 9.515C76.2208 9.179 76.0738 8.906 75.9058 8.696C75.6538 8.36 75.2338 8.003 74.6458 7.625C74.0998 7.247 73.8268 6.722 73.8268 6.05C73.8268 4.664 75.0028 3.341 77.3548 2.081C79.7488 0.820997 81.7228 0.190998 83.2768 0.190998C84.4528 0.190998 85.1038 0.715998 85.2298 1.766C85.3138 2.186 85.3558 3.026 85.3558 4.286C85.3558 5.546 85.2088 8.108 84.9148 11.972C84.6628 15.836 84.5368 19.532 84.5368 23.06V29.36L84.5998 32.573V33.77ZM71.4958 36.668C73.0498 36.668 74.2888 35.786 75.2128 34.022C76.1788 32.258 76.6618 30.683 76.6618 29.297C76.6618 26.021 75.7588 24.383 73.9528 24.383C72.4828 24.383 71.2438 25.328 70.2358 27.218C69.2698 29.066 68.7868 30.83 68.7868 32.51C68.7868 35.114 69.6898 36.5 71.4958 36.668ZM98.4768 28.1C98.4768 28.352 98.5608 28.562 98.7288 28.73C98.8968 28.94 99.1068 29.045 99.3588 29.045C101.753 28.835 103.349 27.701 104.147 25.643C104.357 25.181 104.504 24.635 104.588 24.005C104.546 22.535 103.958 21.8 102.824 21.8C101.522 21.8 100.514 22.43 99.7998 23.69C99.1278 24.95 98.6868 26.42 98.4768 28.1ZM102.761 16.004C105.575 16.004 107.759 16.718 109.313 18.146C110.909 19.574 111.707 21.737 111.707 24.635C111.707 27.533 110.552 29.927 108.242 31.817C105.974 33.707 103.097 34.652 99.6108 34.652C99.1068 34.652 98.8548 34.904 98.8548 35.408C98.8548 36.416 99.2118 37.298 99.9258 38.054C100.682 38.768 101.69 39.125 102.95 39.125C104.252 39.125 105.407 38.537 106.415 37.361C107.465 36.185 108.368 35.597 109.124 35.597C109.922 35.597 110.552 35.933 111.014 36.605C111.476 37.277 111.707 38.243 111.707 39.503C111.707 40.721 111.392 41.96 110.762 43.22C110.174 44.438 109.46 45.362 108.62 45.992C107.78 46.622 106.835 47.126 105.785 47.504C104.231 48.092 102.572 48.386 100.808 48.386C99.0858 48.386 97.4688 47.966 95.9568 47.126C94.4448 46.286 93.2688 45.152 92.4288 43.724C90.7908 40.868 89.9718 37.718 89.9718 34.274C89.9718 30.788 90.3918 27.764 91.2318 25.202C92.0718 22.64 93.4998 20.477 95.5158 18.713C97.5738 16.907 99.9888 16.004 102.761 16.004ZM125.311 42.149L125.437 43.724C125.437 45.11 124.954 46.139 123.988 46.811C122.35 47.945 120.271 48.512 117.751 48.512C116.155 48.512 115.357 47.819 115.357 46.433L115.546 45.362C116.554 40.406 117.058 34.337 117.058 27.155C117.058 24.971 116.407 23.417 115.105 22.493C114.643 22.199 114.412 21.716 114.412 21.044C114.412 19.742 115.441 18.482 117.499 17.264C119.599 16.004 121.279 15.374 122.539 15.374C123.799 15.374 124.513 16.067 124.681 17.453C124.849 18.419 124.933 19.154 124.933 19.658C124.933 20.12 125.101 20.351 125.437 20.351C125.647 20.351 125.794 20.267 125.878 20.099C126.004 19.889 126.109 19.7 126.193 19.532C126.319 19.322 126.571 18.986 126.949 18.524C127.327 18.02 127.726 17.6 128.146 17.264C129.238 16.298 130.456 15.815 131.8 15.815C132.682 15.815 133.564 16.088 134.446 16.634C136.084 17.642 136.903 19.637 136.903 22.619C136.903 24.509 136.525 26.147 135.769 27.533C135.013 28.919 133.795 29.612 132.115 29.612C130.015 29.612 128.965 28.457 128.965 26.147L129.028 25.202C129.028 24.488 128.734 24.131 128.146 24.131C125.92 24.131 124.807 27.344 124.807 33.77C124.807 35.45 124.975 38.243 125.311 42.149ZM149.733 15.437C155.277 15.437 158.049 17.075 158.049 20.351C158.049 21.275 157.734 22.052 157.104 22.682C156.516 23.312 155.823 23.627 155.025 23.627C154.269 23.627 153.534 23.417 152.82 22.997C152.106 22.577 151.308 22.367 150.426 22.367C148.284 22.367 147.213 22.976 147.213 24.194C147.213 24.74 147.549 25.202 148.221 25.58C153.177 28.058 156.159 30.074 157.167 31.628C158.385 33.434 158.994 35.597 158.994 38.117C158.994 39.041 158.784 40.154 158.364 41.456C157.944 42.758 157.377 43.871 156.663 44.795C155.949 45.677 154.815 46.496 153.261 47.252C151.707 48.008 149.859 48.386 147.717 48.386C146.205 48.386 144.588 48.134 142.866 47.63C139.38 46.622 137.637 44.543 137.637 41.393C137.637 39.923 138.057 38.663 138.897 37.613C139.737 36.521 140.787 35.975 142.047 35.975C143.307 35.975 144.21 36.353 144.756 37.109C144.798 37.151 144.924 37.34 145.134 37.676C145.344 38.012 145.533 38.264 145.701 38.432C146.247 38.978 146.961 39.251 147.843 39.251C148.725 39.251 149.418 39.041 149.922 38.621C150.426 38.159 150.678 37.55 150.678 36.794C150.678 36.038 150.09 35.261 148.914 34.463C147.738 33.665 146.436 32.972 145.008 32.384C143.622 31.796 142.341 30.872 141.165 29.612C139.989 28.31 139.401 26.798 139.401 25.076C139.401 22.136 140.346 19.805 142.236 18.083C144.168 16.319 146.667 15.437 149.733 15.437ZM171.379 7.121L171.253 10.145C171.253 11.237 171.484 11.846 171.946 11.972C172.45 12.098 172.933 12.161 173.395 12.161C173.857 12.161 174.55 12.119 175.474 12.035C176.356 12.035 176.797 12.602 176.797 13.736C176.797 15.878 175.264 17.537 172.198 18.713C171.778 18.881 171.484 19.259 171.316 19.847C171.064 22.409 170.938 25.412 170.938 28.856C170.938 32.3 171.064 34.568 171.316 35.66C171.526 36.668 172.282 37.277 173.584 37.487C173.878 37.487 174.151 37.634 174.403 37.928C174.865 38.474 175.096 39.02 175.096 39.566C175.096 40.07 175.054 40.574 174.97 41.078C174.886 41.54 174.676 42.212 174.34 43.094C174.046 43.934 173.647 44.732 173.143 45.488C172.681 46.202 171.967 46.832 171.001 47.378C170.035 47.924 168.943 48.197 167.725 48.197C165.625 48.197 164.113 46.958 163.189 44.48C162.853 43.514 162.685 42.359 162.685 41.015L163.189 24.068C163.189 22.01 163.063 20.33 162.811 19.028C162.601 17.726 161.803 16.508 160.417 15.374C159.829 14.954 159.535 14.366 159.535 13.61C159.535 12.854 159.913 12.098 160.669 11.342C162.979 9.914 165.1 7.667 167.032 4.601C167.62 3.803 168.355 3.404 169.237 3.404C170.665 3.404 171.379 4.643 171.379 7.121ZM179.946 38.054L180.135 27.848C180.135 26.63 180.03 25.58 179.82 24.698C179.61 23.774 179.274 23.06 178.812 22.556C178.392 22.01 178.182 21.443 178.182 20.855C178.182 19.553 179.232 18.356 181.332 17.264C183.432 16.13 185.049 15.563 186.183 15.563C187.317 15.563 188.073 15.794 188.451 16.256C188.871 16.718 189.081 17.558 189.081 18.776C189.081 19.994 188.976 21.926 188.766 24.572C188.556 27.176 188.451 28.751 188.451 29.297C188.451 33.875 189.438 36.164 191.412 36.164C192.84 36.164 193.806 34.673 194.31 31.691C194.52 30.599 194.625 29.381 194.625 28.037C194.625 25.349 194.394 23.354 193.932 22.052C193.47 21.464 193.239 20.897 193.239 20.351C193.239 19.091 194.184 18.041 196.074 17.201C197.964 16.319 199.623 15.878 201.051 15.878C202.521 15.878 203.256 16.613 203.256 18.083C203.256 19.511 203.109 21.758 202.815 24.824C202.563 27.89 202.437 30.326 202.437 32.132C202.437 33.896 202.458 35.156 202.5 35.912C202.542 36.626 202.752 37.718 203.13 39.188C203.55 40.616 204.096 41.54 204.768 41.96C205.482 42.296 205.839 42.758 205.839 43.346C205.839 43.892 205.671 44.396 205.335 44.858C203.781 47 201.324 48.071 197.964 48.071C196.074 47.945 195.003 47.231 194.751 45.929L194.31 43.787C194.268 43.493 194.142 43.346 193.932 43.346L193.428 43.598C191.916 46.454 189.606 47.882 186.498 47.882C182.13 47.798 179.946 44.522 179.946 38.054ZM232.074 33.77L232.137 35.282V35.534C232.137 37.76 232.809 39.335 234.153 40.259C234.783 40.763 235.098 41.309 235.098 41.897C235.098 42.485 234.951 42.989 234.657 43.409C233.733 44.753 232.578 45.824 231.192 46.622C229.344 47.714 227.727 48.26 226.341 48.26C224.955 48.26 224.199 47.588 224.073 46.244C223.989 45.194 223.779 44.669 223.443 44.669L223.002 44.921C221.574 46.895 219.684 47.882 217.332 47.882C215.61 47.882 214.119 47.441 212.859 46.559C211.641 45.677 210.717 44.48 210.087 42.968C208.869 40.112 208.26 36.899 208.26 33.329C208.26 29.507 209.226 25.832 211.158 22.304C212.124 20.624 213.426 19.259 215.064 18.209C216.702 17.117 218.508 16.571 220.482 16.571C221.406 16.571 222.162 16.697 222.75 16.949L223.632 17.327C223.926 17.327 224.094 16.991 224.136 16.319C224.22 15.647 224.262 14.786 224.262 13.736C224.262 12.644 224.22 11.762 224.136 11.09C224.052 10.376 223.947 9.851 223.821 9.515C223.695 9.179 223.548 8.906 223.38 8.696C223.128 8.36 222.708 8.003 222.12 7.625C221.574 7.247 221.301 6.722 221.301 6.05C221.301 4.664 222.477 3.341 224.829 2.081C227.223 0.820997 229.197 0.190998 230.751 0.190998C231.927 0.190998 232.578 0.715998 232.704 1.766C232.788 2.186 232.83 3.026 232.83 4.286C232.83 5.546 232.683 8.108 232.389 11.972C232.137 15.836 232.011 19.532 232.011 23.06V29.36L232.074 32.573V33.77ZM218.97 36.668C220.524 36.668 221.763 35.786 222.687 34.022C223.653 32.258 224.136 30.683 224.136 29.297C224.136 26.021 223.233 24.383 221.427 24.383C219.957 24.383 218.718 25.328 217.71 27.218C216.744 29.066 216.261 30.83 216.261 32.51C216.261 35.114 217.164 36.5 218.97 36.668ZM238.517 37.991L238.706 27.533C238.706 25.559 238.37 24.047 237.698 22.997C237.068 21.947 236.753 21.212 236.753 20.792C236.753 19.574 237.866 18.398 240.092 17.264C242.36 16.13 244.082 15.563 245.258 15.563C246.854 15.563 247.652 16.592 247.652 18.65C247.652 20.162 247.547 21.968 247.337 24.068C247.127 26.126 247.022 28.037 247.022 29.801C247.022 33.581 247.883 35.471 249.605 35.471H249.857C251.957 35.471 253.007 32.447 253.007 26.399C253.007 24.677 252.755 23.228 252.251 22.052C251.789 21.464 251.558 20.897 251.558 20.351C251.558 19.133 252.545 18.083 254.519 17.201C256.493 16.319 258.215 15.878 259.685 15.878C261.155 15.878 261.89 16.592 261.89 18.02C261.89 19.532 261.785 21.044 261.575 22.556C261.197 25.832 261.008 29.696 261.008 34.148L261.197 42.023C261.197 46.601 260.882 50.213 260.252 52.859C259.664 55.505 258.32 57.815 256.22 59.789C254.162 61.805 251.663 62.813 248.723 62.813C247.001 62.813 245.489 62.33 244.187 61.364C242.885 60.398 242.234 59.033 242.234 57.269C242.234 56.261 242.507 55.463 243.053 54.875C243.641 54.287 244.229 53.951 244.817 53.867L245.636 53.741C248.072 53.699 249.836 52.733 250.928 50.843C252.02 48.953 252.566 46.496 252.566 43.472C252.566 42.758 252.461 42.401 252.251 42.401L251.684 42.653C250.13 45.509 247.904 46.937 245.006 46.937C240.68 46.937 238.517 43.955 238.517 37.991Z" fill="#F5E127"/>
</svg>
