<svg width="45" height="45" viewBox="0 0 45 45" fill="none" xmlns="http://www.w3.org/2000/svg">
<circle cx="22.5" cy="22.5" r="20.5" stroke="#F5E127" stroke-width="4"/>
<path d="M23.7797 11.2007C23.7797 10.7811 23.613 10.3787 23.3163 10.082C23.0196 9.78533 22.6172 9.61865 22.1977 9.61865C21.7781 9.61865 21.3757 9.78533 21.079 10.082C20.7823 10.3787 20.6156 10.7811 20.6156 11.2007V20.1655H11.6508C11.2312 20.1655 10.8288 20.3322 10.5321 20.6289C10.2354 20.9256 10.0688 21.328 10.0688 21.7476C10.0688 22.1671 10.2354 22.5695 10.5321 22.8662C10.8288 23.1629 11.2312 23.3296 11.6508 23.3296H20.6156V32.2944C20.6156 32.714 20.7823 33.1164 21.079 33.4131C21.3757 33.7098 21.7781 33.8765 22.1977 33.8765C22.6172 33.8765 23.0196 33.7098 23.3163 33.4131C23.613 33.1164 23.7797 32.714 23.7797 32.2944V23.3296H32.7445C33.1641 23.3296 33.5665 23.1629 33.8632 22.8662C34.1599 22.5695 34.3266 22.1671 34.3266 21.7476C34.3266 21.328 34.1599 20.9256 33.8632 20.6289C33.5665 20.3322 33.1641 20.1655 32.7445 20.1655H23.7797V11.2007Z" fill="#F5E127"/>
</svg>
