<svg width="70" height="70" viewBox="0 0 70 70" fill="none" xmlns="http://www.w3.org/2000/svg">
<circle cx="35" cy="35" r="32.5" stroke="#F5E127" stroke-width="5"/>
<path d="M36.9906 17.4235C36.9906 16.7708 36.7313 16.1448 36.2698 15.6833C35.8083 15.2218 35.1824 14.9625 34.5297 14.9625C33.877 14.9625 33.2511 15.2218 32.7895 15.6833C32.328 16.1448 32.0688 16.7708 32.0688 17.4235V31.3688H18.1234C17.4708 31.3688 16.8448 31.628 16.3833 32.0896C15.9218 32.5511 15.6625 33.177 15.6625 33.8297C15.6625 34.4824 15.9218 35.1083 16.3833 35.5699C16.8448 36.0314 17.4708 36.2906 18.1234 36.2906H32.0688V50.236C32.0688 50.8886 32.328 51.5146 32.7895 51.9761C33.2511 52.4376 33.877 52.6969 34.5297 52.6969C35.1824 52.6969 35.8083 52.4376 36.2698 51.9761C36.7313 51.5146 36.9906 50.8886 36.9906 50.236V36.2906H50.9359C51.5886 36.2906 52.2146 36.0314 52.6761 35.5699C53.1376 35.1083 53.3969 34.4824 53.3969 33.8297C53.3969 33.177 53.1376 32.5511 52.6761 32.0896C52.2146 31.628 51.5886 31.3688 50.9359 31.3688H36.9906V17.4235Z" fill="#F5E127"/>
</svg>
