<svg width="19" height="30" viewBox="0 0 19 30" fill="none" xmlns="http://www.w3.org/2000/svg">
<path d="M18.5 20.4581C18.5 23.4948 17.4381 25.8508 15.3142 27.5262C13.1903 29.1754 10.6814 30 7.78761 30C6.72566 30 5.73009 29.8822 4.80088 29.6466C3.89823 29.4372 3.24779 29.2147 2.84956 28.9791L2.25221 28.6257C1.74779 28.2068 1.49558 27.7094 1.49558 27.1335C1.9469 22.5262 2.17257 18.8613 2.17257 16.1387C2.17257 13.3901 2.06637 11.2042 1.85398 9.58115C1.64159 7.93194 1.4292 6.88482 1.21681 6.43979L0.858407 5.73298C0.619469 5.39267 0.5 4.97382 0.5 4.47644C0.5 3.61256 0.951327 2.86649 1.85398 2.23822C2.06637 2.08115 2.38496 1.88482 2.80973 1.64921C3.23451 1.38743 4.15044 1.04712 5.55752 0.628271C6.9646 0.209424 8.5177 0 10.2168 0C11.9159 0 13.4558 0.39267 14.8363 1.17801C16.2168 1.96335 16.9071 3.12827 16.9071 4.67277C16.9071 7.31675 15.8053 9.48953 13.6018 11.1911C13.4159 11.3482 13.323 11.5183 13.323 11.7016C13.323 11.8586 13.4159 11.9895 13.6018 12.0942C14.7434 12.8796 15.6726 13.7435 16.3894 14.6859C17.1327 15.6283 17.6372 16.5314 17.9027 17.3953C18.3009 18.678 18.5 19.699 18.5 20.4581ZM8.10619 11.1518C8.87611 11.1518 9.53982 10.6544 10.0973 9.65969C10.6549 8.63874 10.9336 7.70942 10.9336 6.87173C10.9336 6.03403 10.6814 5.37958 10.177 4.90838C9.69911 4.43717 9.0885 4.20157 8.34513 4.20157C7.62832 4.20157 7.26991 4.45026 7.26991 4.94764C7.26991 7.32984 7.40265 9.29319 7.66814 10.8377C7.72124 11.0471 7.86726 11.1518 8.10619 11.1518ZM11.7699 19.3979C11.7699 18.4031 11.531 17.4869 11.0531 16.6492C10.5752 15.7853 10.0575 15.3534 9.5 15.3534C8.96903 15.3534 8.50442 15.7723 8.10619 16.6099C7.73451 17.4215 7.54867 18.2461 7.54867 19.0838C7.54867 21.4398 8.22566 22.6178 9.57965 22.6178C10.2699 22.6178 10.8009 22.3298 11.1726 21.7539C11.5708 21.1518 11.7699 20.3665 11.7699 19.3979Z" fill="#F5E127"/>
</svg>
