<svg width="14" height="14" viewBox="0 0 14 14" fill="none" xmlns="http://www.w3.org/2000/svg">
<path d="M0.423767 10.4679V13.2221H3.25176L11.5925 5.09897L8.76447 2.34473L0.423767 10.4679ZM13.7795 2.96903C13.8494 2.90108 13.9048 2.82037 13.9427 2.73152C13.9805 2.64267 14 2.54742 14 2.45123C14 2.35504 13.9805 2.25979 13.9427 2.17094C13.9048 2.08209 13.8494 2.00138 13.7795 1.93343L12.0148 0.214789C11.945 0.146702 11.8621 0.092684 11.7709 0.0558276C11.6797 0.0189712 11.5819 0 11.4831 0C11.3844 0 11.2866 0.0189712 11.1953 0.0558276C11.1041 0.092684 11.0212 0.146702 10.9515 0.214789L9.5714 1.55886L12.3994 4.31309L13.7795 2.96903Z" fill="#F5E127"/>
</svg>
