<svg width="31" height="30" viewBox="0 0 31 30" fill="none" xmlns="http://www.w3.org/2000/svg">
<path d="M30.3571 14.7592L17.1448 1.22811L16.2592 0.320671C16.0574 0.115276 15.7845 0 15.5001 0C15.2156 0 14.9428 0.115276 14.741 0.320671L0.64298 14.7592C0.436215 14.9702 0.272806 15.2215 0.162397 15.4984C0.0519885 15.7752 -0.00318214 16.0718 0.000141731 16.3708C0.0138191 17.6041 1.01569 18.5886 2.2193 18.5886H3.67253V30H27.3276V18.5886H28.8116C29.3963 18.5886 29.9468 18.3539 30.3606 17.93C30.5643 17.7219 30.7257 17.4745 30.8355 17.202C30.9452 16.9296 31.0011 16.6376 31 16.3428C31 15.7472 30.7709 15.1831 30.3571 14.7592ZM17.4149 27.4774H13.5852V20.33H17.4149V27.4774ZM24.8657 16.066V27.4774H19.6033V19.4891C19.6033 18.7148 18.9912 18.0876 18.2355 18.0876H12.7646C12.0089 18.0876 11.3968 18.7148 11.3968 19.4891V27.4774H6.13446V16.066H2.85188L15.5035 3.11307L16.2934 3.92241L28.1517 16.066H24.8657Z" fill="#F5E127"/>
</svg>
