<svg width="36" height="30" viewBox="0 0 36 30" fill="none" xmlns="http://www.w3.org/2000/svg">
<path fill-rule="evenodd" clip-rule="evenodd" d="M0.5 2.5C0.5 1.83696 0.763392 1.20107 1.23223 0.732234C1.70107 0.263393 2.33696 0 3 0H33C33.663 0 34.2989 0.263393 34.7678 0.732234C35.2366 1.20107 35.5 1.83696 35.5 2.5C35.5 3.16304 35.2366 3.79893 34.7678 4.26777C34.2989 4.73661 33.663 5 33 5H3C2.33696 5 1.70107 4.73661 1.23223 4.26777C0.763392 3.79893 0.5 3.16304 0.5 2.5ZM0.5 15C0.5 14.337 0.763392 13.7011 1.23223 13.2322C1.70107 12.7634 2.33696 12.5 3 12.5H33C33.663 12.5 34.2989 12.7634 34.7678 13.2322C35.2366 13.7011 35.5 14.337 35.5 15C35.5 15.663 35.2366 16.2989 34.7678 16.7678C34.2989 17.2366 33.663 17.5 33 17.5H3C2.33696 17.5 1.70107 17.2366 1.23223 16.7678C0.763392 16.2989 0.5 15.663 0.5 15ZM0.5 27.5C0.5 26.837 0.763392 26.2011 1.23223 25.7322C1.70107 25.2634 2.33696 25 3 25H33C33.663 25 34.2989 25.2634 34.7678 25.7322C35.2366 26.2011 35.5 26.837 35.5 27.5C35.5 28.163 35.2366 28.7989 34.7678 29.2678C34.2989 29.7366 33.663 30 33 30H3C2.33696 30 1.70107 29.7366 1.23223 29.2678C0.763392 28.7989 0.5 28.163 0.5 27.5Z" fill="#F5E127"/>
</svg>
