<svg width="26" height="34" viewBox="0 0 26 34" fill="none" xmlns="http://www.w3.org/2000/svg">
<path d="M6.1 8.92308H10.7M6.1 17H19.9M6.1 21.6154H19.9M6.1 26.2308H10.7M3.8 32H22.2C22.81 32 23.395 31.7569 23.8263 31.3241C24.2577 30.8913 24.5 30.3043 24.5 29.6923V4.30769C24.5 3.69565 24.2577 3.10868 23.8263 2.67591C23.395 2.24313 22.81 2 22.2 2H3.8C3.19 2 2.60499 2.24313 2.17365 2.67591C1.74232 3.10868 1.5 3.69565 1.5 4.30769V29.6923C1.5 30.3043 1.74232 30.8913 2.17365 31.3241C2.60499 31.7569 3.19 32 3.8 32Z" stroke="#F5E127" stroke-width="2.5" stroke-linecap="round" stroke-linejoin="round"/>
</svg>
